<svg xmlns="http://www.w3.org/2000/svg" width="24" height="24">
    <path fill="#16a085" d="M3 1036.4v13a2 2 0 002 2h14a2 2 0 002-2v-13H3z" transform="translate(0 -1028.4)"></path>
    <path fill="#ecf0f1" d="M3 1035.4v13c0 1.1.895 2 2 2h14c1.105 0 2-.9 2-2v-13H3z" transform="translate(0 -1028.4)"></path>
    <path fill="#bdc3c7" d="M3 1034.4v13c0 1.1.895 2 2 2h14c1.105 0 2-.9 2-2v-13H3z" transform="translate(0 -1028.4)"></path>
    <path fill="#ecf0f1" d="M3 1033.4v13c0 1.1.895 2 2 2h14c1.105 0 2-.9 2-2v-13H3z" transform="translate(0 -1028.4)"></path>
    <path fill="#16a085" d="M5 1029.4a2 2 0 00-2 2v18a2 2 0 002 2h2v-1H5.5a1.5 1.5 0 010-3H19a2 2 0 002-2v-14a2 2 0 00-2-2H5z" transform="translate(0 -1028.4)"></path>
    <path fill="#1abc9c" d="M8 1029.4v18h11a2 2 0 002-2v-14a2 2 0 00-2-2H8z" transform="translate(0 -1028.4)"></path>
</svg>